<?xml version="1.0" encoding="utf-8"?>
<!-- Generator: Adobe Illustrator 17.1.0, SVG Export Plug-In . SVG Version: 6.00 Build 0)  -->
<!DOCTYPE svg PUBLIC "-//W3C//DTD SVG 1.1//EN" "http://www.w3.org/Graphics/SVG/1.1/DTD/svg11.dtd">
<svg version="1.1" id="Layer_4" xmlns="http://www.w3.org/2000/svg" xmlns:xlink="http://www.w3.org/1999/xlink" x="0px" y="0px"
	 viewBox="0 0 340 480" enable-background="new 0 0 340 480" xml:space="preserve">
<path fill="#FFFFFF" d="M274.2,214.3c1.6,0.8,4.9,4.6,8.7,6.5s10.8,14.1,12.2,15.4c1.4,1.4,2.4,4.3,1.6,3.8
	c-0.8-0.6-2.2,0.6-3.5,4.4c-1.4,3.8-4.3,2.7-10.6,6.2c-6.2,3.5-10.3,3.3-7,5.1c3.3,1.9,4.9,4.9,4.9,4.9s-4.6-1.6,6.2,2.4
	s22.2,1.9,26.5,2.4c4.3,0.5,10.6-1.6,14.1,3.1c5.1,6.7-3.7,6.9-5.6,6.9s-13.7,1.4-11.5,2.2c2.2,0.8,8.7,2.2,11.6,1.4
	c13.3-3.7,18.1,4.4,18.1,4.4s-4.8,7.5-9.6,5.3c-3.1-1.4-3.7,2.9-6.2,3.4c-4.6,0.8-14.1-0.9-20.4-5.2c-6.2-4.3-8.1-1.1-22.5,3.3
	c-14.4,4.3-16,3.3-31.4,12.5c-15.4,9.2-62.6,13.5-82.9,11.9s-23.6-6-28.2-5.7c-4.6,0.3-7.9-1.4-15.4,4.3c-7.6,5.7-10,1.9-19.2-1.4
	c-9.2-3.2-6.2-7.6-10-7.3c-3.8,0.3-10.8-7.3-15.4-13.5s-3-7.9-4.6-7.3s-4.9,3.8-8.1,13.8s-15.2,15.4-20,17.3
	c-4.9,1.9-3.8-2.2-2.2-6.2c1.6-4.1,3-4.9,3-8.9c0-4.1,1.1-8.1,5.7-11.6c4.6-3.5,5.7-3.5,7.3-9.7c1.6-6.2-2.2-6-4.9-9.5
	c-2.7-3.5-15.4,2.7-24.1,6.2c-8.7,3.5-16.5,6.8-23.8,8.4s-8.7-0.8-4.9-3.8s2.7-7,6.5-9.2c3.8-2.2,5.7-0.8,7.6-4.3s1.9-3.8,11.1-3
	s8.9-2.2,17.9-7.9s17.9-5.7,20.3-2.4c2.4,3.2,3.5,8.1,3.5,8.1s3.3-3.5,4.9-6c1.6-2.4,6.8,3,8.9,6.2c2.2,3.3,6.2,9.2,6.2,9.2
	s1.7-9.5,3-12.9c1.4-3.4-4.1-4.4-2.2-6.9c1.9-2.4-2.7-9.2,0-16.5c2.7-7.3,11.6-2.2,14.6,0.5c3,2.7,3.3,2.2,12.2,3.5
	s0.8-2.2,17.1,9.2c16.2,11.4,28.2,6.2,40.4,9.2c12.2,3,33.3-1.9,42.5-6.2c9.2-4.3,19-10,21.7-12.2c2.7-2.2,5.1-2.2,7.3-5.4
	s-0.8-7.6-1.1-11.1s-1.6-5.4-2.2-10.8s-11.1-9.5-15.4-13.3c-4.3-3.8-6-21.7-6.2-25.2c-0.3-3.5,1.6-2.4,1.6-2.4s6.2,3.8,7.3,5.1
	c1.1,1.4,12.2,8.7,12.2,7.3s1.6-8.9,1.4-11.4s-1.4-7-1.4-7s6.2,1.1,8.7,2.4c2.4,1.4,6.8,10,7.9,13.8c1.1,3.8,0,20,0,25.7
	s3.5,6.2,3.5,6.2C264.3,214.1,272.6,213.5,274.2,214.3z"/>
</svg>
